<svg width="32" height="32" viewBox="0 0 32 32" fill="none" xmlns="http://www.w3.org/2000/svg">
<path d="M28.5301 9.52985L12.5301 25.5298C12.3895 25.6703 12.1988 25.7492 12.0001 25.7492C11.8013 25.7492 11.6107 25.6703 11.4701 25.5298L4.47009 18.5298C4.33761 18.3877 4.26549 18.1996 4.26892 18.0053C4.27234 17.811 4.35106 17.6256 4.48847 17.4882C4.62588 17.3508 4.81127 17.2721 5.00557 17.2687C5.19987 17.2652 5.38792 17.3374 5.53009 17.4698L12.0001 23.9386L27.4701 8.46985C27.6123 8.33737 27.8003 8.26524 27.9946 8.26867C28.1889 8.2721 28.3743 8.35081 28.5117 8.48823C28.6491 8.62564 28.7278 8.81102 28.7313 9.00532C28.7347 9.19963 28.6626 9.38767 28.5301 9.52985Z" fill="#f06b63"/>
</svg>
