<svg width="32" height="32" viewBox="0 0 32 32" fill="none" xmlns="http://www.w3.org/2000/svg">
<path d="M9.25 11.0005V5.00049C9.25 4.80157 9.32902 4.61081 9.46967 4.47016C9.61032 4.3295 9.80109 4.25049 10 4.25049C10.1989 4.25049 10.3897 4.3295 10.5303 4.47016C10.671 4.61081 10.75 4.80157 10.75 5.00049V11.0005C10.75 11.1994 10.671 11.3902 10.5303 11.5308C10.3897 11.6715 10.1989 11.7505 10 11.7505C9.80109 11.7505 9.61032 11.6715 9.46967 11.5308C9.32902 11.3902 9.25 11.1994 9.25 11.0005ZM26.75 5.00049V28.0005C26.75 28.1994 26.671 28.3902 26.5303 28.5308C26.3897 28.6715 26.1989 28.7505 26 28.7505C25.8011 28.7505 25.6103 28.6715 25.4697 28.5308C25.329 28.3902 25.25 28.1994 25.25 28.0005V21.7505H19C18.8011 21.7505 18.6103 21.6715 18.4697 21.5308C18.329 21.3902 18.25 21.1994 18.25 21.0005C18.25 20.4492 18.335 7.46924 25.705 4.31174C25.819 4.26296 25.9433 4.24322 26.0668 4.25427C26.1904 4.26532 26.3092 4.30682 26.4127 4.37506C26.5163 4.44331 26.6013 4.53615 26.6601 4.6453C26.719 4.75445 26.7499 4.87648 26.75 5.00049ZM25.25 6.25049C20.6512 9.28674 19.8975 17.6855 19.7738 20.2505H25.25V6.25049ZM14.74 4.87549C14.7236 4.77831 14.6882 4.68531 14.6358 4.60182C14.5835 4.51832 14.5152 4.44595 14.4349 4.38884C14.3545 4.33173 14.2638 4.291 14.1677 4.26898C14.0716 4.24696 13.9722 4.24407 13.875 4.26049C13.7778 4.2769 13.6848 4.3123 13.6013 4.36465C13.5178 4.417 13.4455 4.48529 13.3884 4.56562C13.3312 4.64594 13.2905 4.73672 13.2685 4.83279C13.2465 4.92885 13.2436 5.02831 13.26 5.12549L14.25 11.0605C14.25 12.1877 13.8022 13.2687 13.0052 14.0657C12.2082 14.8627 11.1272 15.3105 10 15.3105C8.87283 15.3105 7.79183 14.8627 6.9948 14.0657C6.19777 13.2687 5.75 12.1877 5.75 11.0605L6.74 5.12549C6.77315 4.92923 6.72698 4.72783 6.61165 4.56562C6.49631 4.4034 6.32126 4.29364 6.125 4.26049C5.92874 4.22733 5.72735 4.2735 5.56513 4.38884C5.40291 4.50417 5.29315 4.67923 5.26 4.87549L4.26 10.8755C4.25351 10.9168 4.25016 10.9586 4.25 11.0005C4.2518 12.395 4.75966 13.7414 5.67924 14.7897C6.59882 15.8381 7.86763 16.517 9.25 16.7005V28.0005C9.25 28.1994 9.32902 28.3902 9.46967 28.5308C9.61032 28.6715 9.80109 28.7505 10 28.7505C10.1989 28.7505 10.3897 28.6715 10.5303 28.5308C10.671 28.3902 10.75 28.1994 10.75 28.0005V16.7005C12.1324 16.517 13.4012 15.8381 14.3208 14.7897C15.2403 13.7414 15.7482 12.395 15.75 11.0005C15.7498 10.9586 15.7465 10.9168 15.74 10.8755L14.74 4.87549Z" fill="#f06b63"/>
</svg>
