<svg width="32" height="32" viewBox="0 0 32 32" fill="none" xmlns="http://www.w3.org/2000/svg">
<path d="M27.7498 15.9998C27.7498 16.1988 27.6708 16.3895 27.5302 16.5302C27.3895 16.6708 27.1987 16.7498 26.9998 16.7498H6.81108L14.5298 24.4698C14.6035 24.5385 14.6626 24.6213 14.7036 24.7133C14.7446 24.8053 14.7666 24.9046 14.7684 25.0053C14.7702 25.106 14.7517 25.2061 14.714 25.2994C14.6762 25.3928 14.6201 25.4777 14.5489 25.5489C14.4776 25.6201 14.3928 25.6762 14.2994 25.714C14.206 25.7517 14.106 25.7702 14.0053 25.7684C13.9046 25.7667 13.8053 25.7446 13.7133 25.7036C13.6213 25.6626 13.5385 25.6035 13.4698 25.5298L4.46983 16.5298C4.32938 16.3892 4.25049 16.1986 4.25049 15.9998C4.25049 15.8011 4.32938 15.6105 4.46983 15.4698L13.4698 6.46985C13.612 6.33737 13.8 6.26524 13.9944 6.26867C14.1887 6.2721 14.374 6.35081 14.5114 6.48822C14.6489 6.62564 14.7276 6.81102 14.731 7.00532C14.7344 7.19963 14.6623 7.38767 14.5298 7.52985L6.81108 15.2498H26.9998C27.1987 15.2498 27.3895 15.3289 27.5302 15.4695C27.6708 15.6102 27.7498 15.8009 27.7498 15.9998Z" fill="#f06b63"/>
</svg>
