<svg width="32" height="32" viewBox="0 0 32 32" fill="none" xmlns="http://www.w3.org/2000/svg">
<path d="M12.75 19C12.75 19.1989 12.671 19.3897 12.5303 19.5303C12.3897 19.671 12.1989 19.75 12 19.75H7C6.80109 19.75 6.61032 19.671 6.46967 19.5303C6.32902 19.3897 6.25 19.1989 6.25 19C6.25 18.8011 6.32902 18.6103 6.46967 18.4697C6.61032 18.329 6.80109 18.25 7 18.25H12C12.1989 18.25 12.3897 18.329 12.5303 18.4697C12.671 18.6103 12.75 18.8011 12.75 19ZM29.75 14.5V22C29.75 22.4641 29.5656 22.9092 29.2374 23.2374C28.9092 23.5656 28.4641 23.75 28 23.75H16.75V28C16.75 28.1989 16.671 28.3897 16.5303 28.5303C16.3897 28.671 16.1989 28.75 16 28.75C15.8011 28.75 15.6103 28.671 15.4697 28.5303C15.329 28.3897 15.25 28.1989 15.25 28V23.75H4C3.53587 23.75 3.09075 23.5656 2.76256 23.2374C2.43437 22.9092 2.25 22.4641 2.25 22V14.5C2.25232 12.5779 3.0169 10.7352 4.37603 9.37603C5.73517 8.0169 7.57789 7.25232 9.5 7.25H19.25V3C19.25 2.80109 19.329 2.61032 19.4697 2.46967C19.6103 2.32902 19.8011 2.25 20 2.25H24C24.1989 2.25 24.3897 2.32902 24.5303 2.46967C24.671 2.61032 24.75 2.80109 24.75 3C24.75 3.19891 24.671 3.38968 24.5303 3.53033C24.3897 3.67098 24.1989 3.75 24 3.75H20.75V7.25H22.5C24.4221 7.25232 26.2648 8.0169 27.624 9.37603C28.9831 10.7352 29.7477 12.5779 29.75 14.5ZM15.25 22.25V14.5C15.25 12.975 14.6442 11.5125 13.5659 10.4341C12.4875 9.3558 11.025 8.75 9.5 8.75C7.97501 8.75 6.51247 9.3558 5.43414 10.4341C4.3558 11.5125 3.75 12.975 3.75 14.5V22C3.75 22.0663 3.77634 22.1299 3.82322 22.1768C3.87011 22.2237 3.9337 22.25 4 22.25H15.25ZM28.25 14.5C28.248 12.9756 27.6416 11.5142 26.5637 10.4363C25.4858 9.35842 24.0244 8.75198 22.5 8.75H20.75V18C20.75 18.1989 20.671 18.3897 20.5303 18.5303C20.3897 18.671 20.1989 18.75 20 18.75C19.8011 18.75 19.6103 18.671 19.4697 18.5303C19.329 18.3897 19.25 18.1989 19.25 18V8.75H13.9113C14.7942 9.4261 15.5095 10.2965 16.0018 11.2936C16.4941 12.2908 16.7501 13.3879 16.75 14.5V22.25H28C28.0663 22.25 28.1299 22.2237 28.1768 22.1768C28.2237 22.1299 28.25 22.0663 28.25 22V14.5Z" fill="#f06b63"/>
</svg>
