<svg width="32" height="32" viewBox="0 0 32 32" fill="none" xmlns="http://www.w3.org/2000/svg">
<path d="M27.75 5.99972V11.9997C27.75 12.1986 27.671 12.3894 27.5303 12.5301C27.3897 12.6707 27.1989 12.7497 27 12.7497H21C20.8011 12.7497 20.6103 12.6707 20.4697 12.5301C20.329 12.3894 20.25 12.1986 20.25 11.9997C20.25 11.8008 20.329 11.61 20.4697 11.4694C20.6103 11.3287 20.8011 11.2497 21 11.2497H25.19L22.9338 8.99972C21.0288 7.08643 18.4424 6.00743 15.7425 5.99972H15.685C13.0083 5.99127 10.4358 7.03661 8.52375 8.90972C8.45416 8.98236 8.37068 9.04026 8.27826 9.07997C8.18584 9.11969 8.08638 9.1404 7.98579 9.14089C7.8852 9.14138 7.78554 9.12162 7.69274 9.08281C7.59994 9.04399 7.5159 8.9869 7.44561 8.91494C7.37533 8.84298 7.32024 8.75761 7.28362 8.66392C7.247 8.57023 7.2296 8.47014 7.23246 8.36959C7.23532 8.26904 7.25838 8.17009 7.30026 8.07863C7.34214 7.98718 7.40199 7.90508 7.47625 7.83722C9.66622 5.68623 12.6154 4.48447 15.685 4.49222H15.75C18.8475 4.50012 21.815 5.73794 24 7.93348L26.25 10.1835V5.99972C26.25 5.80081 26.329 5.61005 26.4697 5.46939C26.6103 5.32874 26.8011 5.24972 27 5.24972C27.1989 5.24972 27.3897 5.32874 27.5303 5.46939C27.671 5.61005 27.75 5.80081 27.75 5.99972ZM23.4762 23.0897C21.5654 24.9656 18.9927 26.0137 16.315 26.0072H16.2575C13.5576 25.9995 10.9712 24.9205 9.06625 23.0072L6.81 20.7497H11C11.1989 20.7497 11.3897 20.6707 11.5303 20.5301C11.671 20.3894 11.75 20.1986 11.75 19.9997C11.75 19.8008 11.671 19.61 11.5303 19.4694C11.3897 19.3287 11.1989 19.2497 11 19.2497H5C4.80109 19.2497 4.61032 19.3287 4.46967 19.4694C4.32902 19.61 4.25 19.8008 4.25 19.9997V25.9997C4.25 26.1986 4.32902 26.3894 4.46967 26.5301C4.61032 26.6707 4.80109 26.7497 5 26.7497C5.19891 26.7497 5.38968 26.6707 5.53033 26.5301C5.67098 26.3894 5.75 26.1986 5.75 25.9997V21.8097L8 24.066C10.185 26.2615 13.1525 27.4993 16.25 27.5072H16.315C19.3846 27.515 22.3338 26.3132 24.5238 24.1622C24.598 24.0944 24.6579 24.0123 24.6997 23.9208C24.7416 23.8294 24.7647 23.7304 24.7675 23.6299C24.7704 23.5293 24.753 23.4292 24.7164 23.3355C24.6798 23.2418 24.6247 23.1565 24.5544 23.0845C24.4841 23.0125 24.4001 22.9555 24.3073 22.9166C24.2145 22.8778 24.1148 22.8581 24.0142 22.8586C23.9136 22.859 23.8142 22.8798 23.7217 22.9195C23.6293 22.9592 23.5458 23.0171 23.4762 23.0897Z" fill="#f06b63"/>
</svg>
